<svg id="Calque_1" data-name="Calque 1" xmlns="http://www.w3.org/2000/svg" viewBox="0 0 122.01 65.99"><defs><style>.cls-1,.cls-2{fill:none;stroke:#f9f4e9;stroke-width:2px;}.cls-2{stroke-linecap:round;}</style></defs><path class="cls-1" d="M1.87,34.53a3.07,3.07,0,0,0,.25.26l28.1,29.75a2.2,2.2,0,0,0,3.12.2l.08-.07A2.34,2.34,0,0,0,34.14,63V47.32H70.55c1.36,0,2.87-.31,2.87-1.56v-25a3.56,3.56,0,0,0-2.87-3.13H34.15V3.49A2.51,2.51,0,0,0,32.79,1.3h-.91a2.37,2.37,0,0,0-1.66.78L2.12,31.67a2.09,2.09,0,0,0-.25,2.86Z" transform="translate(-0.42 -0.3)"/><path class="cls-2" d="M121.43,34h-31" transform="translate(-0.42 -0.3)"/><path class="cls-2" d="M106.43,46.09h-21" transform="translate(-0.42 -0.3)"/><path class="cls-2" d="M106.43,19.92h-21" transform="translate(-0.42 -0.3)"/></svg>