<svg xmlns="http://www.w3.org/2000/svg" xmlns:xlink="http://www.w3.org/1999/xlink" viewBox="0 0 135.77 77.74"><defs><style>.cls-1{fill:url(#Dégradé_sans_nom_19);}.cls-2{fill:url(#Dégradé_sans_nom_26);}.cls-3{fill:#2d2c2c;}.cls-4{fill:#898585;}</style><linearGradient id="Dégradé_sans_nom_19" x1="60.08" y1="17.71" x2="107.51" y2="17.71" gradientUnits="userSpaceOnUse"><stop offset="0.14" stop-color="#db6904"/><stop offset="0.88" stop-color="#fa9500"/></linearGradient><linearGradient id="Dégradé_sans_nom_26" x1="26.48" y1="17.75" x2="73.91" y2="17.75" gradientUnits="userSpaceOnUse"><stop offset="0.67" stop-color="#fa9500"/><stop offset="1" stop-color="#fff"/></linearGradient></defs><title>201124_AG_LogoSVGNoir</title><g id="Calque_2" data-name="Calque 2"><g id="Calque_1-2" data-name="Calque 1"><path class="cls-1" d="M107.51.14S83.57-2.76,75,17.68c0,0-6.3,17.9-15,16.82h0a27.21,27.21,0,0,0,25.1-6A29.85,29.85,0,0,0,92.75,18C95,12.75,100.42,2.05,107.51.14Z"/><path class="cls-2" d="M26.48.18S50.41-2.72,59,17.72c0,0,6.3,17.9,15,16.82h0a27.18,27.18,0,0,1-25.1-6A29.6,29.6,0,0,1,41.24,18C39,12.8,33.57,2.09,26.48.18Z"/><path class="cls-3" d="M0,35.72H5.86V54.36l8.62-9.63h7.36L11.78,55.92,23,68.08H15.77L5.86,57.32V68.08H0Z"/><path class="cls-3" d="M41.8,44.73h5.86V68.08H41.8V65.61A11.41,11.41,0,0,1,38.36,68a9.62,9.62,0,0,1-3.74.72,10.39,10.39,0,0,1-7.82-3.51,12.25,12.25,0,0,1-3.3-8.72,12.52,12.52,0,0,1,3.19-8.86,10.17,10.17,0,0,1,7.76-3.46,9.84,9.84,0,0,1,3.94.8,10.55,10.55,0,0,1,3.41,2.38Zm-6.16,4.81a5.92,5.92,0,0,0-4.51,1.92,6.91,6.91,0,0,0-1.8,4.92,7,7,0,0,0,1.83,5,5.94,5.94,0,0,0,4.5,2,6,6,0,0,0,4.58-1.93,7,7,0,0,0,1.82-5,6.82,6.82,0,0,0-1.82-4.93A6.1,6.1,0,0,0,35.64,49.54Z"/><path class="cls-3" d="M52.7,44.73h5.86v2.4a14.13,14.13,0,0,1,3.61-2.34,8.69,8.69,0,0,1,3.31-.66,8,8,0,0,1,5.9,2.43q2,2.05,2,6.09V68.08H67.62V57.86a25.85,25.85,0,0,0-.38-5.56,3.82,3.82,0,0,0-1.3-2.09,3.72,3.72,0,0,0-2.31-.71,4.29,4.29,0,0,0-3.05,1.19A6.41,6.41,0,0,0,58.82,54a26.38,26.38,0,0,0-.26,4.73v9.37H52.7Z"/><path class="cls-3" d="M77.21,44.73H95.08L84.59,63.12h9.89v5H75.6L86.14,49.69H77.21Z"/><path class="cls-3" d="M114.76,44.73h5.86V68.08h-5.86V65.61A11.41,11.41,0,0,1,111.32,68a9.59,9.59,0,0,1-3.74.72,10.39,10.39,0,0,1-7.82-3.51,12.25,12.25,0,0,1-3.3-8.72,12.52,12.52,0,0,1,3.19-8.86,10.17,10.17,0,0,1,7.76-3.46,9.81,9.81,0,0,1,3.94.8,10.55,10.55,0,0,1,3.41,2.38Zm-6.16,4.81a5.92,5.92,0,0,0-4.51,1.92,6.91,6.91,0,0,0-1.8,4.92,7,7,0,0,0,1.83,5,5.94,5.94,0,0,0,4.51,2,6,6,0,0,0,4.57-1.93,7,7,0,0,0,1.82-5,6.82,6.82,0,0,0-1.82-4.93A6.1,6.1,0,0,0,108.6,49.54Z"/><path class="cls-3" d="M123.17,34.33a3.08,3.08,0,1,1,0,6.15,3,3,0,0,1-2.16-.9,3,3,0,0,1-.9-2.19,3.07,3.07,0,0,1,3.06-3.06ZM125,44.73h5.86V68.08H125Zm7.66-10.4a3,3,0,0,1,2.19.9,3,3,0,0,1,.9,2.16,3.08,3.08,0,1,1-6.16,0,3.07,3.07,0,0,1,3.07-3.06Z"/><path class="cls-4" d="M22,74.45v2.37c0,.52-.11.92-.77.92h0v-.28h0c.34,0,.43-.21.43-.57V74.45Zm-.33-.63v-.49H22v.49Z"/><path class="cls-4" d="M23.94,75.64a.82.82,0,0,0,.84.83.76.76,0,0,0,.72-.4h.33a1.06,1.06,0,0,1-1.08.68,1.18,1.18,0,0,1,0-2.36,1.08,1.08,0,0,1,1.13,1.16v.09Zm1.57-.26a.72.72,0,0,0-.78-.72.75.75,0,0,0-.78.72Z"/><path class="cls-4" d="M29.43,76v.66h-.32a3.52,3.52,0,0,1,0-.41.76.76,0,0,1-.82.47c-.48,0-.84-.25-.84-.91V74.45h.33v1.33c0,.35.14.67.58.67s.75-.3.75-1v-1h.34Z"/><path class="cls-4" d="M31.18,75c0-.19,0-.39,0-.56h.33c0,.08,0,.28,0,.45a.85.85,0,0,1,.84-.51c.52,0,.86.31.86.94v1.36h-.34v-1.3c0-.4-.15-.71-.6-.71s-.75.39-.75.95v1.06h-.34Z"/><path class="cls-4" d="M35.12,75.64a.82.82,0,0,0,.84.83.73.73,0,0,0,.71-.4H37a1.08,1.08,0,0,1-1.08.68,1.18,1.18,0,0,1,0-2.36A1.07,1.07,0,0,1,37,75.55v.09Zm1.57-.26a.72.72,0,0,0-.78-.72.75.75,0,0,0-.78.72Z"/><path class="cls-4" d="M38.77,76c.09.3.34.47.78.47s.64-.17.64-.4-.12-.35-.73-.42-.92-.35-.92-.63.22-.64.92-.64,1,.4,1,.66h-.35c0-.15-.13-.39-.67-.39s-.56.2-.56.34.12.3.66.37c.82.11,1,.35,1,.69s-.31.69-1,.69-1-.28-1.1-.74Z"/><path class="cls-4" d="M44.79,76.32v1.36h-.34V74.45h.32a3.38,3.38,0,0,1,0,.41.92.92,0,0,1,.88-.47,1.06,1.06,0,0,1,1,1.14,1.13,1.13,0,0,1-1.1,1.22A.84.84,0,0,1,44.79,76.32Zm1.58-.78a.79.79,0,0,0-.79-.86c-.56,0-.8.4-.8.9a.77.77,0,0,0,.79.87A.82.82,0,0,0,46.37,75.54Z"/><path class="cls-4" d="M50.45,75.57a1.12,1.12,0,0,1-1.18,1.18,1.18,1.18,0,1,1,1.18-1.18Zm-2,0a.83.83,0,0,0,.82.89.81.81,0,0,0,.82-.89.83.83,0,0,0-.83-.9A.81.81,0,0,0,48.46,75.57Z"/><path class="cls-4" d="M54,76c0,.22,0,.44,0,.66H53.7c0-.06,0-.24,0-.41a.78.78,0,0,1-.82.47.79.79,0,0,1-.85-.91V74.45h.34v1.33c0,.35.14.67.57.67s.76-.3.76-1v-1H54Z"/><path class="cls-4" d="M55.89,76a.7.7,0,0,0,.77.47c.47,0,.64-.17.64-.4s-.11-.35-.72-.42c-.77-.09-.92-.35-.92-.63s.22-.64.92-.64,1,.4,1,.66h-.34c0-.15-.13-.39-.67-.39s-.56.2-.56.34.11.3.66.37c.82.11,1,.35,1,.69s-.31.69-1,.69-1-.28-1.09-.74Z"/><path class="cls-4" d="M59.38,76c.08.3.33.47.77.47s.64-.17.64-.4-.12-.35-.72-.42c-.77-.09-.93-.35-.93-.63s.23-.64.92-.64,1,.4,1,.66h-.34c0-.15-.14-.39-.68-.39s-.56.2-.56.34.12.3.66.37c.82.11,1,.35,1,.69s-.31.69-1,.69-1-.28-1.1-.74Z"/><path class="cls-4" d="M62.86,75.64a.81.81,0,0,0,.83.83.76.76,0,0,0,.72-.4h.33a1.06,1.06,0,0,1-1.08.68,1.18,1.18,0,0,1,0-2.36,1.08,1.08,0,0,1,1.13,1.16v.09Zm1.56-.26a.72.72,0,0,0-.78-.72.75.75,0,0,0-.78.72Z"/><path class="cls-4" d="M66.5,76c.09.3.34.47.78.47s.64-.17.64-.4-.12-.35-.72-.42c-.77-.09-.93-.35-.93-.63s.22-.64.92-.64,1,.4,1,.66h-.35c0-.15-.13-.39-.67-.39s-.56.2-.56.34.12.3.66.37c.82.11,1,.35,1,.69s-.31.69-1,.69-1-.28-1.1-.74Z"/><path class="cls-4" d="M74.27,73.33V76c0,.22,0,.44,0,.66H74c0-.1,0-.25,0-.37a.86.86,0,0,1-.85.43A1.07,1.07,0,0,1,72,75.59a1.15,1.15,0,0,1,1.14-1.2.83.83,0,0,1,.8.37V73.33Zm-1.92,2.25a.82.82,0,0,0,.79.88c.59,0,.81-.37.81-.9s-.18-.88-.79-.88A.83.83,0,0,0,72.35,75.58Z"/><path class="cls-4" d="M78,76v.66H77.7a3.52,3.52,0,0,1,0-.41.76.76,0,0,1-.81.47.79.79,0,0,1-.85-.91V74.45h.34v1.33c0,.35.14.67.57.67s.75-.3.75-1v-1H78Z"/><path class="cls-4" d="M82.11,75v-.58h.33c0,.09,0,.23,0,.35a.79.79,0,0,1,.73-.41.69.69,0,0,1,.7.44.84.84,0,0,1,.77-.44c.43,0,.79.24.79.91v1.39h-.33V75.31c0-.28-.09-.63-.52-.63S84,75,84,75.46v1.23h-.34v-1.4c0-.28-.09-.61-.52-.61s-.64.37-.64.82v1.19h-.34Z"/><path class="cls-4" d="M89.2,76c0,.22,0,.44,0,.66h-.33c0-.06,0-.24,0-.41a.77.77,0,0,1-.82.47.79.79,0,0,1-.85-.91V74.45h.34v1.33c0,.35.14.67.58.67s.75-.3.75-1v-1h.33Z"/><path class="cls-4" d="M91,76.69V73.33h.33v3.36Z"/><path class="cls-4" d="M92.79,74.45h.46v-.74h.34v.74h.6v.28h-.6V76c0,.27.07.39.32.39a.9.9,0,0,0,.23,0v.26a.83.83,0,0,1-.32,0c-.44,0-.57-.2-.57-.64V74.73h-.46Z"/><path class="cls-4" d="M95.7,73.33H96v.49H95.7Zm0,1.12H96v2.24H95.7Z"/><path class="cls-4" d="M97.79,75v-.58h.33c0,.09,0,.23,0,.35a.79.79,0,0,1,.74-.41.67.67,0,0,1,.69.44.84.84,0,0,1,.77-.44c.44,0,.79.24.79.91v1.39h-.33V75.31c0-.28-.09-.63-.52-.63s-.64.27-.64.78v1.23h-.34v-1.4c0-.28-.09-.61-.52-.61s-.64.37-.64.82v1.19h-.34Z"/><path class="cls-4" d="M103,75.64a.81.81,0,0,0,.83.83.76.76,0,0,0,.72-.4h.33a1.06,1.06,0,0,1-1.08.68,1.18,1.18,0,0,1,0-2.36A1.08,1.08,0,0,1,105,75.55v.09Zm1.56-.26a.72.72,0,0,0-.78-.72.75.75,0,0,0-.78.72Z"/><path class="cls-4" d="M108.65,73.33V76c0,.22,0,.44,0,.66h-.33c0-.1,0-.25,0-.37a.86.86,0,0,1-.85.43,1.07,1.07,0,0,1-1.09-1.16,1.15,1.15,0,0,1,1.14-1.2.83.83,0,0,1,.8.37V73.33Zm-1.92,2.25a.82.82,0,0,0,.79.88c.59,0,.81-.37.81-.9s-.18-.88-.79-.88A.83.83,0,0,0,106.73,75.58Z"/><path class="cls-4" d="M110.43,73.33h.33v.49h-.33Zm0,1.12h.33v2.24h-.33Z"/><path class="cls-4" d="M114.41,76.16c0,.19,0,.48,0,.53h-.32a2.16,2.16,0,0,1,0-.35.85.85,0,0,1-.86.41c-.64,0-.87-.39-.87-.71,0-.57.52-.73,1.16-.73h.57v-.14c0-.26-.12-.51-.64-.51s-.57.21-.62.44h-.34c0-.31.23-.71,1-.71s1,.38,1,.75Zm-.33-.6h-.56c-.56,0-.83.12-.83.46s.18.45.58.45a.71.71,0,0,0,.81-.79Z"/></g></g></svg>