<svg xmlns="http://www.w3.org/2000/svg" xmlns:xlink="http://www.w3.org/1999/xlink" viewBox="0 0 917.12 463.92"><defs><style>.cls-1{fill:url(#Dégradé_sans_nom_19);}.cls-2{fill:url(#Dégradé_sans_nom_26);}.cls-3{fill:#2d2c2c;}</style><linearGradient id="Dégradé_sans_nom_19" x1="405.85" y1="119.6" x2="726.23" y2="119.6" gradientUnits="userSpaceOnUse"><stop offset="0.14" stop-color="#db6904"/><stop offset="0.88" stop-color="#fa9500"/></linearGradient><linearGradient id="Dégradé_sans_nom_26" x1="178.86" y1="119.88" x2="499.24" y2="119.88" gradientUnits="userSpaceOnUse"><stop offset="0.67" stop-color="#fa9500"/><stop offset="1" stop-color="#fff"/></linearGradient></defs><title>logo</title><g id="Calque_2" data-name="Calque 2"><g id="Calque_1-2" data-name="Calque 1"><path class="cls-1" d="M726.23,1S564.54-18.65,506.88,119.44c0,0-42.52,120.89-101,113.58h0s90.32,29.5,169.54-40.48a200.94,200.94,0,0,0,51.11-71C641.78,86.15,678.33,13.83,726.23,1Z"/><path class="cls-2" d="M178.86,1.24s161.7-19.6,219.35,118.48c0,0,42.52,120.89,101,113.58h0c-.05,0-90.32,29.5-169.54-40.48a200.85,200.85,0,0,1-51.11-71C263.31,86.44,226.76,14.11,178.86,1.24Z"/><path class="cls-3" d="M0,241.28H39.57v125.9l58.27-65h49.7L79.6,377.75l76.06,82.12H106.54l-67-72.69v72.69H0Z"/><path class="cls-3" d="M282.37,302.16h39.57V459.87H282.37V443.2q-11.6,11-23.24,15.87a65,65,0,0,1-25.27,4.85q-30.54,0-52.84-23.69t-22.3-58.93q0-36.53,21.58-59.86t52.41-23.34a66.49,66.49,0,0,1,26.63,5.37,72.7,72.7,0,0,1,23,16.09Zm-41.6,32.47q-18.35,0-30.48,13t-12.14,33.27q0,20.43,12.35,33.63a40,40,0,0,0,30.41,13.19q18.65,0,30.92-13t12.28-34q0-20.58-12.28-33.33T240.77,334.63Z"/><path class="cls-3" d="M356,302.16h39.57v16.16Q409,307,420,302.54a58.94,58.94,0,0,1,22.37-4.44q23.44,0,39.8,16.38,13.75,13.92,13.75,41.17V459.87H456.75V390.8q0-28.23-2.54-37.49t-8.82-14.12q-6.28-4.85-15.54-4.85a29.14,29.14,0,0,0-20.61,8q-8.6,8-11.93,22.22-1.74,7.38-1.73,32v63.27H356Z"/><path class="cls-3" d="M521.54,302.16H642.29L571.43,426.38h66.8v33.49H510.67l71.18-124.22H521.54Z"/><path class="cls-3" d="M775.21,302.16h39.57V459.87H775.21V443.2q-11.58,11-23.24,15.87a65,65,0,0,1-25.26,4.85q-30.56,0-52.85-23.69T651.57,381.3q0-36.53,21.57-59.86t52.41-23.34a66.54,66.54,0,0,1,26.64,5.37,72.66,72.66,0,0,1,23,16.09Zm-41.6,32.47q-18.35,0-30.48,13T691,380.87q0,20.43,12.35,33.63a40,40,0,0,0,30.41,13.19q18.64,0,30.92-13t12.28-34q0-20.58-12.28-33.33T733.61,334.63Z"/><path class="cls-3" d="M832,231.86A20.78,20.78,0,1,1,817.39,238,20.14,20.14,0,0,1,832,231.86Zm12.47,70.3h39.57V459.87H844.5Zm51.75-70.3A20.79,20.79,0,1,1,881.61,238,20.13,20.13,0,0,1,896.25,231.86Z"/></g></g></svg>