<svg id="Calque_1" data-name="Calque 1" xmlns="http://www.w3.org/2000/svg" viewBox="0 0 32 32"><defs><style>.cls-1{fill:#f9f4e9;}</style></defs><g id="linkedin-2"><g id="Groupe_145" data-name="Groupe 145"><g id="Groupe_144" data-name="Groupe 144"><path id="Tracé_145" data-name="Tracé 145" class="cls-1" d="M488.87,85.81h0a4.31,4.31,0,0,0-3,7.39,4.2,4.2,0,0,0,3,1.22h.1a4.31,4.31,0,0,0-.06-8.61Z" transform="translate(-484.54 -85.81)"/><path id="Tracé_146" data-name="Tracé 146" class="cls-1" d="M491,95.76h-4.35a1.59,1.59,0,0,0-1.57,1.61v18.82a1.64,1.64,0,0,0,1.62,1.61H491a1.62,1.62,0,0,0,1.61-1.58V97.37A1.64,1.64,0,0,0,491,95.76Z" transform="translate(-484.54 -85.81)"/><path id="Tracé_147" data-name="Tracé 147" class="cls-1" d="M509.08,95.22H508a7.26,7.26,0,0,0-5.39,2.36v-.75a1.16,1.16,0,0,0-1.08-1.07h-5.37a1.1,1.1,0,0,0-1.08,1v20.06a1.06,1.06,0,0,0,1.08,1H502a1.06,1.06,0,0,0,1.08-1V105.24a3,3,0,0,1,2.89-3.15,3,3,0,0,1,2.29.91,2.94,2.94,0,0,1,.73,2.2v11.53a1.16,1.16,0,0,0,1.08,1.07h5.37a1.16,1.16,0,0,0,1.08-1.07V102.85a7.47,7.47,0,0,0-7.3-7.63Z" transform="translate(-484.54 -85.81)"/></g></g></g></svg>