<svg id="Calque_1" data-name="Calque 1" xmlns="http://www.w3.org/2000/svg" viewBox="0 0 40 32"><defs><style>.cls-1{fill:#f9f4e9;}</style></defs><g id="twitter-2"><g id="Groupe_146" data-name="Groupe 146"><path id="Tracé_148" data-name="Tracé 148" class="cls-1" d="M331.28,141.33a.79.79,0,0,0-.81-.18l-1.35.45a9.09,9.09,0,0,0,1.69-2.86.75.75,0,0,0-1-.91c-1.89.78-3.57,1.46-4.9,1.86a.16.16,0,0,1-.15,0c-1.06-.58-3.72-1.92-5.6-1.9a8.93,8.93,0,0,0-8.66,8.94V147c-7-1.34-10.91-3.32-15.12-7.66l-.65-.68-.44.83c-2.28,4.34-.66,8.23,2,10.85a5.25,5.25,0,0,1-2.76-1.17.81.81,0,0,0-1-.07.77.77,0,0,0-.34.88,13,13,0,0,0,5.84,7.22,5.69,5.69,0,0,1-3.25-.78.84.84,0,0,0-1,.05.79.79,0,0,0-.26.9c1.23,3.41,3.55,5.21,7.38,5.65a16.91,16.91,0,0,1-8.52,2.11.93.93,0,0,0-.86.62.88.88,0,0,0,.29,1c2.43,1.92,7.87,3.07,14.56,3.07,12,0,21.71-10.47,21.71-23.33v-.23a6.6,6.6,0,0,0,3.36-4.09A.76.76,0,0,0,331.28,141.33Z" transform="translate(-291.52 -137.77)"/></g></g></svg>