<svg width="342" height="628" viewBox="0 0 342 628" fill="none" xmlns="http://www.w3.org/2000/svg">
<g clip-path="url(#clip0)">
<path opacity="0.6" d="M236.081 598.514C266.156 552.114 423.912 368.953 286.788 283.182C149.664 197.411 199.075 61.9044 156.024 17.3623C112.972 -27.1798 3.8335 5.84337 35.9658 214.035C68.0982 422.226 -59.1124 566.901 35.9658 598.492C131.044 630.082 206.016 644.892 236.081 598.514Z" fill="#F49522"/>
<path opacity="0.6" d="M236.081 598.514C266.156 552.114 423.912 368.953 286.788 283.182C149.664 197.411 199.075 61.9044 156.024 17.3623C112.972 -27.1798 3.8335 5.84337 35.9658 214.035C68.0982 422.226 -59.1124 566.901 35.9658 598.492C131.044 630.082 206.016 644.892 236.081 598.514Z" fill="#F49522"/>
</g>
<defs>
<clipPath id="clip0">
<rect width="628" height="342" fill="white" transform="translate(342) rotate(90)"/>
</clipPath>
</defs>
</svg>
