<?xml version="1.0" encoding="utf-8"?>
<!-- Generator: Adobe Illustrator 25.0.1, SVG Export Plug-In . SVG Version: 6.00 Build 0)  -->
<svg version="1.1" id="Calque_1" xmlns="http://www.w3.org/2000/svg" xmlns:xlink="http://www.w3.org/1999/xlink" x="0px" y="0px"
	 viewBox="0 0 1000 500" style="enable-background:new 0 0 1000 500;" xml:space="preserve">
<style type="text/css">
	.st0{fill:none;stroke:#F9F4E9;stroke-width:2;}
	.st1{fill:none;stroke:#F9F4E9;stroke-width:2;stroke-linecap:round;}
</style>
<g id="Arrow" transform="translate(1.169 1)">
	<g id="right-arrow" transform="translate(72.006 64) rotate(180)">
		<g id="Groupe_21">
			<g id="Groupe_20">
				<path id="Tracé_25" class="st0" d="M-380.38-170.43c-0.08-0.09-0.16-0.18-0.25-0.26l-28.1-29.75c-0.81-0.92-2.2-1.01-3.12-0.2
					c-0.03,0.02-0.05,0.05-0.08,0.07c-0.46,0.44-0.72,1.05-0.72,1.69v15.66h-36.41c-1.36,0-2.87,0.31-2.87,1.56v25.05
					c0.16,1.56,1.33,2.84,2.87,3.13h36.4v14.09c0.02,0.93,0.54,1.77,1.36,2.19h0.91c0.64-0.03,1.24-0.31,1.66-0.78l28.1-29.59
					C-379.8-168.3-379.69-169.56-380.38-170.43z"/>
			</g>
		</g>
	</g>
	<line id="Ligne_9" class="st1" x1="571.94" y1="233.91" x2="540.94" y2="233.91"/>
	<line id="Ligne_10" class="st1" x1="556.94" y1="245.99" x2="535.94" y2="245.99"/>
	<line id="Ligne_11" class="st1" x1="556.94" y1="219.82" x2="535.94" y2="219.82"/>
</g>
</svg>
