<svg xmlns="http://www.w3.org/2000/svg" xmlns:xlink="http://www.w3.org/1999/xlink" viewBox="0 0 415.77 100.31"><defs><style>.cls-1{fill:#b92135;}.cls-11,.cls-2,.cls-9{fill:none;}.cls-2{stroke:#000;}.cls-3{fill:url(#Dégradé_sans_nom_5);}.cls-4{fill:#c11725;}.cls-5{fill:url(#Dégradé_sans_nom_2);}.cls-6{fill:url(#Dégradé_sans_nom_3);}.cls-7{fill:url(#Dégradé_sans_nom_4);}.cls-8{fill:#bf1823;}.cls-9{stroke:#c01824;stroke-width:7px;}.cls-11,.cls-9{stroke-miterlimit:10;}.cls-10{fill:#70141a;}.cls-11{stroke:#fff;stroke-width:4px;}.cls-12{fill:url(#Dégradé_sans_nom_6);}.cls-13{fill:url(#Dégradé_sans_nom_6-2);}</style><linearGradient id="Dégradé_sans_nom_5" x1="-84.95" y1="732.41" x2="-31.87" y2="732.41" gradientTransform="matrix(1, 0, 0, -1, 86.36, 784.56)" gradientUnits="userSpaceOnUse"><stop offset="0" stop-color="#c11725"/><stop offset="0.31" stop-color="#bf1826"/><stop offset="0.47" stop-color="#b81825"/><stop offset="0.6" stop-color="#aa1922"/><stop offset="0.71" stop-color="#96191f"/><stop offset="0.81" stop-color="#7e171b"/><stop offset="0.9" stop-color="#5e1216"/><stop offset="0.98" stop-color="#390e13"/><stop offset="1" stop-color="#2e0d11"/></linearGradient><linearGradient id="Dégradé_sans_nom_2" x1="-67.19" y1="708.3" x2="-67.19" y2="756.71" gradientTransform="matrix(1, 0, 0, -1, 86.36, 784.56)" gradientUnits="userSpaceOnUse"><stop offset="0" stop-color="#c11725"/><stop offset="0.27" stop-color="#be1825"/><stop offset="0.44" stop-color="#b71825"/><stop offset="0.59" stop-color="#a81922"/><stop offset="0.71" stop-color="#93181d"/><stop offset="0.83" stop-color="#771618"/><stop offset="0.93" stop-color="#561016"/><stop offset="1" stop-color="#3b0f14"/></linearGradient><linearGradient id="Dégradé_sans_nom_3" x1="-14.81" y1="740.81" x2="10" y2="740.81" gradientTransform="matrix(1, 0, 0, -1, 86.36, 784.56)" gradientUnits="userSpaceOnUse"><stop offset="0" stop-color="#c11725"/><stop offset="0.2" stop-color="#be1825"/><stop offset="0.36" stop-color="#b41825"/><stop offset="0.5" stop-color="#a41921"/><stop offset="0.64" stop-color="#8c181e"/><stop offset="0.77" stop-color="#6c1418"/><stop offset="0.89" stop-color="#440e15"/><stop offset="0.92" stop-color="#3c0f14"/></linearGradient><linearGradient id="Dégradé_sans_nom_4" x1="43.27" y1="708.86" x2="-54.29" y2="806.41" gradientTransform="matrix(1, 0, 0, -1, 86.36, 784.56)" gradientUnits="userSpaceOnUse"><stop offset="0" stop-color="#c11725"/><stop offset="0.13" stop-color="#b91825"/><stop offset="0.33" stop-color="#a21921"/><stop offset="0.59" stop-color="#7b161a"/><stop offset="0.88" stop-color="#420f15"/><stop offset="1" stop-color="#2b0d10"/></linearGradient><linearGradient id="Dégradé_sans_nom_6" x1="-86.36" y1="693.1" x2="41.26" y2="693.1" gradientTransform="matrix(1, 0, 0, -1, 86.36, 784.56)" gradientUnits="userSpaceOnUse"><stop offset="0" stop-color="#fff"/><stop offset="0.22" stop-color="#f6f6f6"/><stop offset="0.57" stop-color="#dfdfde"/><stop offset="1" stop-color="#bababa"/></linearGradient><linearGradient id="Dégradé_sans_nom_6-2" x1="3760.08" y1="699.14" x2="4139.08" y2="699.14" xlink:href="#Dégradé_sans_nom_6"/></defs><g id="Calque_2" data-name="Calque 2"><g id="Calque_1-2" data-name="Calque 1"><path d="M162.93,75.41V76a2.86,2.86,0,0,1-.17.93,2.74,2.74,0,0,1-.51.89,2.77,2.77,0,0,1-.84.65,2.73,2.73,0,0,1-1.2.24h-5.44V61.35h5.44a2.59,2.59,0,0,1,1.2.26,2.37,2.37,0,0,1,.84.65,2.56,2.56,0,0,1,.51.87,2.86,2.86,0,0,1,.17.93V75.41Zm-2-10.72v-.22a1.44,1.44,0,0,0-.38-1,1.21,1.21,0,0,0-1-.43h-2.73v14h2.73a1.26,1.26,0,0,0,1-.41,1.49,1.49,0,0,0,.38-1v-11ZM166.49,60h2.06v2.11A3,3,0,0,1,168,64a1.77,1.77,0,0,1-1.56.7V64a1.26,1.26,0,0,0,.63-.22.9.9,0,0,0,.31-.43,1.46,1.46,0,0,0,.12-.6,4.33,4.33,0,0,0,0-.72h-.67l-.36,0Zm13.77,18.77h-2v-8l-.53.19-1,.36-1.44.48a1.92,1.92,0,0,0-.55.24,1.87,1.87,0,0,0-.41.39.9.9,0,0,0-.17.57v5.81h-2V64.06a4.37,4.37,0,0,1,.09-.74,2.14,2.14,0,0,1,.51-1,3.09,3.09,0,0,1,1.22-.81,7.24,7.24,0,0,1,4.51,0,3.14,3.14,0,0,1,1.23.81,2.12,2.12,0,0,1,.5,1,4.61,4.61,0,0,1,.1.74Zm-6.15-8.64.72-.24c.34-.13.67-.25,1-.36l.94-.34.48-.16a1.28,1.28,0,0,0,.79-.6,1.83,1.83,0,0,0,.17-.7V64.42a1.53,1.53,0,0,0-.08-.45.91.91,0,0,0-.31-.48,1.47,1.47,0,0,0-.62-.36A2.81,2.81,0,0,0,176.1,63a2.62,2.62,0,0,0-1,.17,1.38,1.38,0,0,0-.6.38,1.23,1.23,0,0,0-.29.5,2.58,2.58,0,0,0,0,.46ZM192,78.75h-2V64.42a1.9,1.9,0,0,0-.07-.45,1.09,1.09,0,0,0-.29-.48,1.54,1.54,0,0,0-.65-.36,2.79,2.79,0,0,0-1.1-.17,2.64,2.64,0,0,0-1.06.17,1.38,1.38,0,0,0-.6.38,1.36,1.36,0,0,0-.29.5,2.58,2.58,0,0,0,0,.46V78.75h-2V64.06a4.37,4.37,0,0,1,.09-.74,2.24,2.24,0,0,1,.51-1,3.09,3.09,0,0,1,1.22-.81,5.76,5.76,0,0,1,2.26-.36,5.68,5.68,0,0,1,2.25.36,3.06,3.06,0,0,1,1.23.81,2.12,2.12,0,0,1,.5,1,3.69,3.69,0,0,1,.1.74V78.75Zm11.24-15.7h-3.07v15.7h-2V63.05h-3.07v-1.7h8.16Zm11,15.7h-2v-8l-.52.19-1,.36-1.44.48a1.92,1.92,0,0,0-.55.24,1.87,1.87,0,0,0-.41.39.9.9,0,0,0-.17.57v5.81h-2V64.06a4.61,4.61,0,0,1,.1-.74,2.12,2.12,0,0,1,.5-1,3.14,3.14,0,0,1,1.23-.81,7.24,7.24,0,0,1,4.51,0,3.09,3.09,0,0,1,1.22.81,2.14,2.14,0,0,1,.51,1,4.37,4.37,0,0,1,.09.74Zm-6.14-8.64.72-.24c.34-.13.67-.25,1-.36l.93-.34.48-.16a1.31,1.31,0,0,0,.8-.6,1.8,1.8,0,0,0,.16-.7V64.42a1.5,1.5,0,0,0-.07-.45,1,1,0,0,0-.31-.48,1.47,1.47,0,0,0-.62-.36A2.84,2.84,0,0,0,210.1,63a2.62,2.62,0,0,0-1,.17,1.38,1.38,0,0,0-.6.38,1.23,1.23,0,0,0-.29.5,2.58,2.58,0,0,0,0,.46ZM226,78.75h-2V64.42a1.9,1.9,0,0,0-.07-.45,1.09,1.09,0,0,0-.29-.48,1.54,1.54,0,0,0-.65-.36,2.79,2.79,0,0,0-1.1-.17,2.64,2.64,0,0,0-1.06.17,1.38,1.38,0,0,0-.6.38,1.36,1.36,0,0,0-.29.5,2.58,2.58,0,0,0,0,.46V78.75h-2V64.06a4.37,4.37,0,0,1,.09-.74,2.24,2.24,0,0,1,.51-1,3.09,3.09,0,0,1,1.22-.81,5.76,5.76,0,0,1,2.26-.36,5.68,5.68,0,0,1,2.25.36,3.06,3.06,0,0,1,1.23.81,2.12,2.12,0,0,1,.5,1,3.69,3.69,0,0,1,.1.74V78.75Zm23.89,0c-.25-.26-.52-.51-.79-.77s-.53-.52-.79-.79a3.8,3.8,0,0,1-1.68,1.25,8.1,8.1,0,0,1-3,.43q-3.43,0-4.75-1.54a2.76,2.76,0,0,1-.63-1.12,5,5,0,0,1-.14-1.06V74.07a5.07,5.07,0,0,1,.5-2.21,3.76,3.76,0,0,1,1.63-1.65l.7-.39-.29-.26a3.27,3.27,0,0,0-.24-.27l-.12-.09A2.74,2.74,0,0,1,239.7,68a7.8,7.8,0,0,1-.15-1.63V64a2,2,0,0,1,0-.31,3.35,3.35,0,0,1,.07-.44,3,3,0,0,1,.29-.67,2.48,2.48,0,0,1,.6-.67,3.83,3.83,0,0,1,1-.53,5.64,5.64,0,0,1,1.53-.26l.22,0h.33l.34,0h.24a5.41,5.41,0,0,1,1.51.26,3.41,3.41,0,0,1,1,.53,2.24,2.24,0,0,1,.58.67,3.17,3.17,0,0,1,.31.65,1.51,1.51,0,0,1,.07.46,1.84,1.84,0,0,1,0,.31v1.89a4.1,4.1,0,0,1-.38,1.9A3.18,3.18,0,0,1,246,69.1l-2,1.13,3.36,3.53V72.13L249.15,71v2.52c0,.32,0,.62,0,.91a7.42,7.42,0,0,1-.1.84c.48.48.92.94,1.32,1.37l1.11,1.1c.37.39.69.74,1,1.06ZM241.59,67a2.13,2.13,0,0,0,.32,1,7.35,7.35,0,0,0,.67.74l.12.12,2.16-1.2a1.58,1.58,0,0,0,.69-.86,4.4,4.4,0,0,0,.15-1.23V64.28a.21.21,0,0,1,0-.12.39.39,0,0,0,0-.15,1.55,1.55,0,0,0-.55-.72,3.42,3.42,0,0,0-2.93,0,1.64,1.64,0,0,0-.53.72s0,.12,0,.22V67Zm2.14,10.32a4.09,4.09,0,0,0,2-.41,2.55,2.55,0,0,0,1.05-1.18c-.78-.78-1.56-1.55-2.33-2.3l-2.13-2.19-.51.27-.38.24-.31.19a2.53,2.53,0,0,0-.87,1.13,4.45,4.45,0,0,0-.21,1.39v.1s0,.12,0,.21a4.81,4.81,0,0,0,.17.72,2.16,2.16,0,0,0,.55.89A4,4,0,0,0,243.73,77.29Zm25-1.88V76a2.86,2.86,0,0,1-.17.93,2.91,2.91,0,0,1-.5.89,3,3,0,0,1-.84.65,2.79,2.79,0,0,1-1.2.24h-5.45V61.35H266a2.65,2.65,0,0,1,1.2.26,2.57,2.57,0,0,1,.84.65,2.7,2.7,0,0,1,.5.87,2.86,2.86,0,0,1,.17.93V75.41Zm-2-10.72v-.22a1.44,1.44,0,0,0-.38-1,1.21,1.21,0,0,0-1-.43h-2.73v14h2.73a1.26,1.26,0,0,0,1-.41,1.49,1.49,0,0,0,.38-1v-11ZM272.26,60h2.07v2.11A3.11,3.11,0,0,1,273.8,64a1.79,1.79,0,0,1-1.56.7V64a1.22,1.22,0,0,0,.62-.22.84.84,0,0,0,.31-.43,1.46,1.46,0,0,0,.12-.6,4.33,4.33,0,0,0,0-.72h-.67l-.36,0ZM286,78.75h-2v-8l-.53.19-1,.36-1.44.48a2,2,0,0,0-.55.24,2.12,2.12,0,0,0-.41.39.9.9,0,0,0-.17.57v5.81h-2V64.06a4.37,4.37,0,0,1,.09-.74,2.24,2.24,0,0,1,.51-1,3.09,3.09,0,0,1,1.22-.81,5.76,5.76,0,0,1,2.26-.36,5.68,5.68,0,0,1,2.25.36,3.06,3.06,0,0,1,1.23.81,2.12,2.12,0,0,1,.5,1,3.69,3.69,0,0,1,.1.74Zm-6.15-8.64.72-.24,1-.36.94-.34L283,69a1.28,1.28,0,0,0,.79-.6,1.83,1.83,0,0,0,.17-.7V64.42a1.9,1.9,0,0,0-.07-.45,1,1,0,0,0-.32-.48,1.47,1.47,0,0,0-.62-.36,2.79,2.79,0,0,0-1.1-.17,2.64,2.64,0,0,0-1.06.17,1.38,1.38,0,0,0-.6.38,1.36,1.36,0,0,0-.29.5,2.58,2.58,0,0,0-.05.46Zm17.9,5.69h0V76a4.43,4.43,0,0,1-.09.77,2.25,2.25,0,0,1-.51,1,3.35,3.35,0,0,1-1.22.84,6.24,6.24,0,0,1-2.26.33,6.14,6.14,0,0,1-2.25-.33,3.32,3.32,0,0,1-1.23-.84,2.12,2.12,0,0,1-.5-1,4.11,4.11,0,0,1-.1-.77V61.35h2v14.3a2.8,2.8,0,0,0,.05.48,1.24,1.24,0,0,0,.29.48,1.73,1.73,0,0,0,.6.39,3.37,3.37,0,0,0,1.05.14,3.61,3.61,0,0,0,1.11-.14,1.74,1.74,0,0,0,.62-.39.92.92,0,0,0,.31-.45,1.78,1.78,0,0,0,.08-.46V61.35h2Zm11.72-.15V76a3.76,3.76,0,0,1-.1.77,2.12,2.12,0,0,1-.5,1,3.32,3.32,0,0,1-1.23.84,6.14,6.14,0,0,1-2.25.33,6.24,6.24,0,0,1-2.26-.33,3.35,3.35,0,0,1-1.22-.84,2.25,2.25,0,0,1-.51-1,4.89,4.89,0,0,1-.09-.77v-.6h2v.21a2.8,2.8,0,0,0,0,.48,1.37,1.37,0,0,0,.29.48,1.73,1.73,0,0,0,.6.39,3.4,3.4,0,0,0,1.06.14,3.59,3.59,0,0,0,1.1-.14,1.74,1.74,0,0,0,.62-.39,1,1,0,0,0,.32-.45,2.24,2.24,0,0,0,.07-.46V61.35h2Zm11.72.12V76a4.33,4.33,0,0,1-.09.77,2.25,2.25,0,0,1-.51,1,3.35,3.35,0,0,1-1.22.84,6,6,0,0,1-2.26.34,5.91,5.91,0,0,1-2.25-.34,3.32,3.32,0,0,1-1.23-.84,2.12,2.12,0,0,1-.5-1,3.93,3.93,0,0,1-.1-.77V64a3.68,3.68,0,0,1,.1-.75,2.13,2.13,0,0,1,.5-1,3.18,3.18,0,0,1,1.23-.82,5.68,5.68,0,0,1,2.25-.36,5.76,5.76,0,0,1,2.26.36,3.21,3.21,0,0,1,1.22.82,2.26,2.26,0,0,1,.51,1,4.35,4.35,0,0,1,.09.75V75.77Zm-2-.36h0V64.66h0V64.4a1.51,1.51,0,0,0-.07-.46,1.11,1.11,0,0,0-.29-.48,1.71,1.71,0,0,0-.65-.36,3,3,0,0,0-1.1-.17,2.9,2.9,0,0,0-1.06.17,1.64,1.64,0,0,0-.6.39,1.14,1.14,0,0,0-.28.5,1.85,1.85,0,0,0-.05.46V75.63a2.17,2.17,0,0,0,.05.48,1.2,1.2,0,0,0,.28.48,2.14,2.14,0,0,0,.6.38,3.18,3.18,0,0,0,1.06.15,3.27,3.27,0,0,0,1.1-.15,1.86,1.86,0,0,0,.65-.38,1.05,1.05,0,0,0,.29-.46,1.6,1.6,0,0,0,.07-.45ZM333,75.8h0V76a4.63,4.63,0,0,1-.1.77,2.12,2.12,0,0,1-.5,1,3.4,3.4,0,0,1-1.23.84,7.87,7.87,0,0,1-4.51,0,3.35,3.35,0,0,1-1.22-.84,2.15,2.15,0,0,1-.51-1,4.89,4.89,0,0,1-.09-.77V61.35h2v14.3a2.74,2.74,0,0,0,0,.48,1.37,1.37,0,0,0,.29.48,2,2,0,0,0,.6.39,3.44,3.44,0,0,0,1.06.14,3.59,3.59,0,0,0,1.1-.14,1.89,1.89,0,0,0,.63-.39,1,1,0,0,0,.31-.45,1.72,1.72,0,0,0,.07-.46V61.35h2Zm10.55,3-2.6-7.44-.48.19-.38.12-.36.12a4.56,4.56,0,0,0-.55.24,1.2,1.2,0,0,0-.39.36,1.06,1.06,0,0,0-.19.55v5.86h-2V64.06a3.69,3.69,0,0,1,.1-.74,2.12,2.12,0,0,1,.5-1,3.06,3.06,0,0,1,1.23-.81,5.68,5.68,0,0,1,2.25-.36,5.76,5.76,0,0,1,2.26.36,3.09,3.09,0,0,1,1.22.81,2.24,2.24,0,0,1,.51,1,4.37,4.37,0,0,1,.09.74v4a2.72,2.72,0,0,1-1.85,2.57l2.84,8.11Zm-4.95-8.64.53-.19.7-.24.72-.24c.24-.1.45-.18.64-.24l.29-.1.27-.09a1.24,1.24,0,0,0,.76-.6,1.56,1.56,0,0,0,.2-.68V64.42a1.53,1.53,0,0,0-.08-.45.91.91,0,0,0-.31-.48,1.47,1.47,0,0,0-.62-.36,2.81,2.81,0,0,0-1.11-.17,2.62,2.62,0,0,0-1.05.17,1.38,1.38,0,0,0-.6.38,1.23,1.23,0,0,0-.29.5,2.58,2.58,0,0,0-.05.46v5.64Zm17.92,5.3V76a2.86,2.86,0,0,1-.17.93,2.74,2.74,0,0,1-.51.89,2.77,2.77,0,0,1-.84.65,2.73,2.73,0,0,1-1.2.24h-5.44V61.35h5.44a2.59,2.59,0,0,1,1.2.26,2.37,2.37,0,0,1,.84.65,2.56,2.56,0,0,1,.51.87,2.86,2.86,0,0,1,.17.93V75.41Zm-2-10.72v-.22a1.44,1.44,0,0,0-.38-1,1.21,1.21,0,0,0-1-.43h-2.73v14h2.73a1.26,1.26,0,0,0,1-.41,1.49,1.49,0,0,0,.38-1v-11ZM360.05,60h2.06v2.11a3.11,3.11,0,0,1-.52,1.92,1.79,1.79,0,0,1-1.56.7V64a1.22,1.22,0,0,0,.62-.22.9.9,0,0,0,.31-.43,1.46,1.46,0,0,0,.12-.6,4.33,4.33,0,0,0,0-.72h-.67l-.36,0Zm12.23,1.37h2v17.4h-2V71H367.7v7.75h-2V61.35h2V69.1h4.58ZM386,75.8h0V76a3.76,3.76,0,0,1-.1.77,2.12,2.12,0,0,1-.5,1,3.32,3.32,0,0,1-1.23.84,6.14,6.14,0,0,1-2.25.33,6.24,6.24,0,0,1-2.26-.33,3.35,3.35,0,0,1-1.22-.84,2.25,2.25,0,0,1-.51-1,4.89,4.89,0,0,1-.09-.77V61.35h2v14.3a2.06,2.06,0,0,0,.05.48,1.2,1.2,0,0,0,.28.48,2,2,0,0,0,.6.39,3.49,3.49,0,0,0,1.06.14A3.59,3.59,0,0,0,383,77a1.79,1.79,0,0,0,.63-.39,1,1,0,0,0,.31-.45,1.72,1.72,0,0,0,.07-.46V61.35h2Zm3.57,3V61.35h2v17.4Z"/><path class="cls-1" d="M239.24,16.55h5.65l2.52,18h.08l2.52-18h5.65v25.2h-3.75V22.67h-.07L249,41.75h-3.31l-2.88-19.08h-.07V41.75h-3.46Zm24.23,0h5.37l4.1,25.2h-4l-.72-5v.07h-4.5L263,41.75h-3.67Zm4.32,16.85L266,20.94H266L264.23,33.4Zm16.47-8.35V22.13q0-2.34-2-2.34t-2,2.34V36.21c0,1.53.66,2.3,2,2.3s2-.77,2-2.3V32.35H288v3.57a6.85,6.85,0,0,1-1.26,4.32,5.09,5.09,0,0,1-3.63,1.83v1.08a3.43,3.43,0,0,1,1.83.4,1.39,1.39,0,0,1,.65,1.3,1.76,1.76,0,0,1-.9,1.76,6.68,6.68,0,0,1-2.77.43,5.57,5.57,0,0,1-2.56-.47,1.67,1.67,0,0,1-.9-1.62v-.36h2.67v.29a.67.67,0,0,0,.21.54,1,1,0,0,0,.58.18,1,1,0,0,0,.72-.21.83.83,0,0,0,.22-.65.79.79,0,0,0-.33-.72,1.78,1.78,0,0,0-1-.22h-.18V42.07a5.28,5.28,0,0,1-3.74-1.83,6.77,6.77,0,0,1-1.26-4.32V22.38a6.51,6.51,0,0,1,1.48-4.57,5.65,5.65,0,0,1,4.35-1.62,5.54,5.54,0,0,1,4.32,1.62A6.43,6.43,0,0,1,288,22.38v2.67ZM298,42.11a5.81,5.81,0,0,1-4.47-1.66A6.59,6.59,0,0,1,292,35.77V22.53a6.59,6.59,0,0,1,1.54-4.68,6.83,6.83,0,0,1,8.93,0A6.59,6.59,0,0,1,304,22.53V35.77a6.59,6.59,0,0,1-1.55,4.68A5.79,5.79,0,0,1,298,42.11Zm0-3.6c1.37,0,2-.83,2-2.48V22.27c0-1.65-.68-2.48-2-2.48s-2.05.83-2.05,2.48V36C295.92,37.68,296.6,38.51,298,38.51Zm10.49-22h5l3.85,15.08h.07V16.55h3.53v25.2h-4.07l-4.75-18.4H312v18.4h-3.53Zm17.16,0h5l3.85,15.08h.07V16.55H338v25.2H334l-4.75-18.4h-.07v18.4h-3.53Zm17.16,0h10.8v3.6h-6.84v6.66h5.44v3.6h-5.44v7.74h6.84v3.6h-10.8Zm14.88,0h5.87A6,6,0,0,1,368,18a5.94,5.94,0,0,1,1.41,4.36v1.54c0,2.62-.87,4.28-2.59,5v.07a3,3,0,0,1,2,1.77,8.6,8.6,0,0,1,.61,3.56v4.43a16.43,16.43,0,0,0,.08,1.76,3.89,3.89,0,0,0,.36,1.3h-4a5.48,5.48,0,0,1-.28-1.15,16.39,16.39,0,0,1-.08-2v-4.6a3.87,3.87,0,0,0-.57-2.42A2.33,2.33,0,0,0,363,31h-1.37v10.8h-4Zm5.4,10.8a2.33,2.33,0,0,0,1.77-.61,2.87,2.87,0,0,0,.61-2v-2a3.09,3.09,0,0,0-.51-2,1.76,1.76,0,0,0-1.51-.61h-1.8v7.2ZM374,16.55h4v25.2h-4Zm8.73,0h10.8v3.6h-6.84v6.66h5.43v3.6h-5.43v7.74h6.84v3.6h-10.8Z"/><path d="M159.24,16.55h5.65l2.52,18h.08l2.52-18h5.65v25.2h-3.75V22.67h-.07L169,41.75h-3.31l-2.88-19.08h-.07V41.75h-3.46Z"/><path class="cls-1" d="M180.34,39a11.17,11.17,0,0,1,.86-4.6,15.89,15.89,0,0,1,3.1-4.29,18.37,18.37,0,0,0,3-4,7.37,7.37,0,0,0,.87-3.46,3.44,3.44,0,0,0-.54-2.23,1.81,1.81,0,0,0-1.51-.65c-1.37,0-2.06.83-2.06,2.48V25h-3.74V22.53a6.6,6.6,0,0,1,1.51-4.68,6.65,6.65,0,0,1,8.79,0,6.65,6.65,0,0,1,1.51,4.68A9.79,9.79,0,0,1,191,27a21.85,21.85,0,0,1-3.78,5,14.41,14.41,0,0,0-2.37,3.06,5.15,5.15,0,0,0-.62,2.48v.54h7.53v3.6H180.34Zm19.35-22.46h5.36l4.1,25.2h-4l-.72-5v.07H200l-.72,4.93h-3.67ZM204,33.4l-1.77-12.46h-.07L200.44,33.4Z"/><rect class="cls-1" x="224.12" y="27.75" width="8.01" height="6"/><line class="cls-2" x1="138.77" y1="52.25" x2="415.77" y2="52.25"/><path class="cls-3" d="M16.92,28l-6.16,5,11,13.85L45,76.26l2.21-10.7Z"/><path class="cls-4" d="M47.17,65.56,45,76.26H55.05L69.07,0l-9,2.8Z"/><path class="cls-5" d="M19.73,76.26h7.85L21.73,46.93l-11-13.85Z"/><path class="cls-6" d="M71.55,40.09l.19,7.45,22-.44.12.16L88.65,40Z"/><path class="cls-7" d="M128,77.38,69.07,0l-2,10.66.32.43v0L88.65,40l5.21,7.31,22.31,30.12Z"/><path class="cls-8" d="M64.27,63l3.09,9.46.07-.14.06.14L70.58,63V57.33a4.47,4.47,0,0,0-3.15-1.16h0a4.47,4.47,0,0,0-3.16,1.16Z"/><path class="cls-9" d="M67.72,7.34l-.61,3.32.32,45.51"/><path class="cls-10" d="M68.24,12.2l2.37-4.26-2.79-1.1-.71,3.82Z"/><path class="cls-11" d="M16.59,36.16a2.38,2.38,0,1,0-2.38-2.38A2.37,2.37,0,0,0,16.59,36.16Z"/><path class="cls-11" d="M65.21,6.17A2.11,2.11,0,1,0,61,5.79a2.11,2.11,0,1,0,4.17.38Z"/><path class="cls-12" d="M116.65,83.07,97,89l-.11,0L73.4,89v1.65H92l-21.4,6.59-1.15.36-.64-10.47h-.55l.6,10.22-14-14.46L43.8,82.8,15.2,89.11l8.89-6.45-9.18-.06L0,92.47,7.55,93.7,46.05,85,60.84,99.72l6.13.33,4.73.26,55.93-17.16Z"/><path class="cls-13" d="M68.49,87.11a19.27,19.27,0,0,0,3.39-.24l-.15-1.18-3.5-2-.06,0-.07,0-3.16,1.93L65,86.85A20.2,20.2,0,0,0,68.49,87.11Z"/></g></g></svg>