<svg width="302" height="101" viewBox="0 0 302 101" fill="none" xmlns="http://www.w3.org/2000/svg">
<g clip-path="url(#clip0)">
<path d="M21.32 58.6432C21.8007 59.167 22.3815 59.5891 23.028 59.8846C23.6746 60.1801 24.3739 60.343 25.0845 60.3636C25.7951 60.3842 26.5027 60.2621 27.1653 60.0045C27.8279 59.747 28.4322 59.3592 28.9424 58.8641L61.7516 27.6014V76.9179C61.7538 78.3584 62.3204 79.7407 63.3297 80.7685C63.8299 81.2716 64.4251 81.6702 65.0807 81.9412C65.7364 82.2121 66.4394 82.3499 67.1488 82.3466C67.8578 82.3473 68.56 82.2083 69.2153 81.9375C69.8706 81.6667 70.4661 81.2695 70.9678 80.7685C71.9786 79.7417 72.5454 78.3587 72.546 76.9179V14.7397C72.5538 14.5873 72.5538 14.4345 72.546 14.2821C72.419 13.2818 72.0267 12.3337 71.4097 11.5361C70.7902 10.7493 69.9656 10.1487 69.0267 9.8002C68.0857 9.45397 67.0664 9.37838 66.0845 9.58201C65.1027 9.78563 64.1975 10.2603 63.4717 10.9522L62.6511 11.7571L21.541 50.9419C20.4967 51.9361 19.8894 53.3039 19.8524 54.7452C19.8257 55.4599 19.9418 56.1726 20.1938 56.8419C20.4458 57.5112 20.8287 58.1236 21.32 58.6432V58.6432Z" fill="white"/>
<path d="M51.2575 58.6429C50.7755 59.1671 50.1934 59.5896 49.5455 59.8853C48.8976 60.181 48.197 60.3439 47.4851 60.3645C46.7732 60.3851 46.0644 60.2629 45.4005 60.0052C44.7365 59.7474 44.131 59.3593 43.6194 58.8638L10.7944 27.5854V76.9175C10.7939 78.3584 10.2271 79.7413 9.2163 80.7682C8.71717 81.2739 8.12254 81.6755 7.46694 81.9496C6.81134 82.2237 6.10783 82.3649 5.39724 82.3649C4.68664 82.3649 3.98313 82.2237 3.32753 81.9496C2.67193 81.6755 2.07731 81.2739 1.57817 80.7682C0.567369 79.7413 0.000591453 78.3584 4.84892e-05 76.9175V14.7394C-0.00782866 14.587 -0.00782866 14.4342 4.84892e-05 14.2818C0.124641 13.278 0.52322 12.328 1.15208 11.5358C1.77164 10.749 2.59619 10.1484 3.53505 9.79988C4.47321 9.45153 5.49062 9.37496 6.47036 9.57895C7.4544 9.78374 8.3617 10.2593 9.09005 10.9519L9.92646 11.7568L50.9577 50.9416C52.0037 51.9353 52.6153 53.3015 52.6596 54.7436C52.7039 56.1856 52.1774 57.5868 51.1944 58.6429H51.2575Z" fill="#6B11C1"/>
<path d="M21.32 58.6432C21.8007 59.167 22.3815 59.5891 23.028 59.8846C23.6746 60.1801 24.3739 60.343 25.0845 60.3636C25.7951 60.3842 26.5027 60.2621 27.1653 60.0045C27.8279 59.747 28.4322 59.3592 28.9424 58.8641L61.7516 27.6014V76.9179C61.7538 78.3584 62.3204 79.7407 63.3297 80.7685C63.8299 81.2716 64.4251 81.6702 65.0807 81.9412C65.7364 82.2121 66.4394 82.3499 67.1488 82.3466C67.8578 82.3473 68.56 82.2083 69.2153 81.9375C69.8706 81.6667 70.4661 81.2695 70.9678 80.7685C71.9786 79.7417 72.5454 78.3587 72.546 76.9179V14.7397C72.5538 14.5873 72.5538 14.4345 72.546 14.2821C72.419 13.2818 72.0267 12.3337 71.4097 11.5361C70.7902 10.7493 69.9656 10.1487 69.0267 9.8002C68.0857 9.45397 67.0664 9.37838 66.0845 9.58201C65.1027 9.78563 64.1975 10.2603 63.4717 10.9522L62.6511 11.7571L21.541 50.9419C20.4967 51.9361 19.8894 53.3039 19.8524 54.7452C19.8257 55.4599 19.9418 56.1726 20.1938 56.8419C20.4458 57.5112 20.8287 58.1236 21.32 58.6432V58.6432Z" fill="url(#paint0_linear)"/>
<path d="M111.21 15.0864V40.0208H108.717V19.1264L100.164 40.0208H97.8438L89.3219 19.2053V40.0208H86.7969V15.0864H89.7638L99.0589 36.8646L108.291 15.0864H111.21Z" fill="#001D3F"/>
<path d="M131.631 21.2411C133.093 22.052 134.288 23.2688 135.072 24.7445C135.941 26.4083 136.376 28.265 136.334 30.1417C136.387 32.0146 135.952 33.869 135.072 35.5231C134.288 36.9988 133.093 38.2157 131.631 39.0266C130.088 39.8353 128.371 40.2578 126.629 40.2578C124.886 40.2578 123.17 39.8353 121.626 39.0266C120.147 38.2158 118.936 36.9933 118.138 35.5073C117.264 33.8567 116.83 32.0089 116.876 30.1417C116.826 28.264 117.261 26.4051 118.138 24.7445C118.941 23.2661 120.151 22.0498 121.626 21.2411C123.173 20.4426 124.888 20.0259 126.629 20.0259C128.369 20.0259 130.085 20.4426 131.631 21.2411V21.2411ZM123.094 23.1033C121.969 23.7075 121.047 24.6296 120.443 25.7545C119.744 27.1086 119.401 28.6186 119.448 30.1417C119.398 31.6602 119.74 33.1659 120.443 34.5131C121.052 35.63 121.973 36.5456 123.094 37.1486C124.197 37.7328 125.428 38.0312 126.676 38.0166C127.904 38.0308 129.115 37.7321 130.195 37.1486C131.315 36.5499 132.232 35.6328 132.831 34.5131C133.533 33.1659 133.876 31.6602 133.825 30.1417C133.875 28.6182 133.533 27.1074 132.831 25.7545C132.232 24.6307 131.316 23.7085 130.195 23.1033C129.115 22.5197 127.904 22.221 126.676 22.2353C125.428 22.2206 124.197 22.519 123.094 23.1033V23.1033Z" fill="#001D3F"/>
<path d="M157.244 22.0937C158.008 22.9701 158.59 23.9887 158.958 25.091C159.327 26.1933 159.474 27.3574 159.391 28.5166V40.0054H156.897V28.6902C157.026 26.9068 156.461 25.1426 155.319 23.7665C154.743 23.1865 154.048 22.7371 153.283 22.4485C152.518 22.1599 151.7 22.0389 150.885 22.0937C150.005 22.0431 149.125 22.1866 148.307 22.5138C147.489 22.8411 146.752 23.3441 146.15 23.9874C144.877 25.5584 144.256 27.5581 144.414 29.574V40.0527H142.031V20.2788H144.572V25.1237C144.996 23.5567 145.957 22.1882 147.286 21.2573C148.621 20.3668 150.196 19.9043 151.8 19.9316C152.807 19.8988 153.81 20.0738 154.747 20.4458C155.684 20.8178 156.534 21.3787 157.244 22.0937V22.0937Z" fill="#001D3F"/>
<path d="M189.706 40.0211L182.81 29.3845H178.722V40.0211H176.182V14.5344H183.914C186.201 14.3616 188.465 15.0861 190.227 16.5544C190.947 17.279 191.509 18.1458 191.876 19.0995C192.243 20.0532 192.407 21.0729 192.357 22.0936C192.451 23.9507 191.81 25.7702 190.574 27.1594C189.188 28.4971 187.368 29.2924 185.445 29.4003L192.531 40.0211H189.706ZM178.659 27.475H183.678C187.728 27.475 189.759 25.7022 189.769 22.1567C189.78 18.6112 187.749 16.8069 183.678 16.7437H178.659V27.475Z" fill="#001D3F"/>
<path d="M197.597 13.1614C197.965 12.8446 198.437 12.6759 198.923 12.688C199.408 12.6728 199.882 12.8419 200.248 13.1614C200.42 13.3255 200.555 13.5246 200.643 13.7453C200.734 13.9592 200.772 14.1921 200.753 14.4239C200.764 14.6553 200.727 14.8865 200.643 15.1025C200.55 15.3114 200.416 15.4993 200.248 15.6548C199.887 15.9843 199.411 16.1598 198.923 16.144C198.437 16.1592 197.963 15.9901 197.597 15.6706C197.421 15.5166 197.285 15.3215 197.203 15.1025C197.113 14.8932 197.07 14.6671 197.076 14.4397C197.071 14.202 197.114 13.9658 197.203 13.7453C197.285 13.5218 197.421 13.3215 197.597 13.1614V13.1614ZM200.201 20.2787V40.0211H197.66V20.2787H200.201Z" fill="#001D3F"/>
<path d="M217.781 21.7304C219.094 22.927 219.929 24.5582 220.133 26.3227H217.781C217.662 25.1122 217.1 23.9884 216.203 23.1665C215.207 22.306 213.92 21.8598 212.605 21.9198C211.51 21.8536 210.43 22.1967 209.575 22.8824C209.218 23.1994 208.937 23.5933 208.754 24.0345C208.564 24.4721 208.472 24.9462 208.486 25.4232C208.474 25.7772 208.527 26.1303 208.644 26.4648C208.767 26.7899 208.949 27.0895 209.18 27.3485C209.671 27.8396 210.264 28.2167 210.916 28.4532C211.831 28.7609 212.764 29.0139 213.71 29.2107C214.884 29.4711 216.039 29.8139 217.166 30.2365C218.031 30.57 218.801 31.1121 219.407 31.8146C220.059 32.6919 220.388 33.7681 220.338 34.8604C220.35 35.5894 220.199 36.3119 219.896 36.9751C219.602 37.6402 219.159 38.2288 218.602 38.6952C217.303 39.7451 215.662 40.2789 213.994 40.1945C212.021 40.2796 210.078 39.6895 208.486 38.5216C207.777 37.9624 207.188 37.2662 206.755 36.4745C206.321 35.6828 206.051 34.8118 205.961 33.9135H208.312C208.361 34.5305 208.533 35.1314 208.817 35.681C209.113 36.2244 209.509 36.7065 209.985 37.1013C211.116 37.971 212.521 38.4076 213.946 38.3323C215.004 38.395 216.046 38.0442 216.85 37.3538C217.198 37.0357 217.468 36.6415 217.639 36.2018C217.825 35.7687 217.911 35.2996 217.892 34.8288C217.926 34.0889 217.671 33.3646 217.181 32.8088C216.689 32.2899 216.077 31.8997 215.398 31.6726C214.457 31.3461 213.498 31.0721 212.526 30.852C211.373 30.5946 210.239 30.2572 209.133 29.842C208.29 29.5082 207.546 28.9651 206.971 28.2638C206.338 27.4321 206.02 26.4038 206.071 25.3601C206.058 24.6208 206.209 23.8876 206.513 23.2138C206.811 22.5379 207.265 21.9428 207.839 21.4779C209.186 20.4278 210.868 19.9008 212.573 19.9945C214.468 19.8842 216.332 20.5056 217.781 21.7304V21.7304Z" fill="#001D3F"/>
<path d="M236.435 40.0207L228.544 30.978V40.0207H225.987V13.2715H228.528V28.958L236.292 20.2784H239.449L230.406 29.9838L239.638 39.9734L236.435 40.0207Z" fill="#001D3F"/>
<path d="M112.978 50.042V75.3867H108.891V56.3703L101.631 75.3867H97.9541L90.6632 56.3703V75.3078H86.5601V50.0578H91.5312L99.8321 70.3051L107.991 50.0578L112.978 50.042Z" fill="#001D3F"/>
<path d="M129.406 56.3703C130.649 57.2617 131.582 58.52 132.073 59.9684V55.2341H136.192V75.3867H132.073V70.6524C131.596 72.1207 130.661 73.398 129.406 74.2978C128.044 75.2213 126.428 75.6958 124.782 75.655C123.151 75.6742 121.545 75.2428 120.143 74.4083C118.774 73.5429 117.679 72.3059 116.987 70.8417C116.181 69.12 115.786 67.2344 115.834 65.3341C115.791 63.4443 116.185 61.57 116.987 59.858C117.675 58.3909 118.77 57.1528 120.143 56.2914C121.542 55.4499 123.15 55.018 124.782 55.0447C126.424 54.9946 128.041 55.458 129.406 56.3703V56.3703ZM121.658 60.4577C120.518 61.8103 119.952 63.5543 120.08 65.3183C119.956 67.0865 120.522 68.8339 121.658 70.1947C122.221 70.7847 122.904 71.2476 123.66 71.5524C124.417 71.8572 125.23 71.9969 126.045 71.9622C127.13 71.9797 128.199 71.6934 129.131 71.1357C130.062 70.578 130.819 69.7711 131.316 68.8059C131.835 67.7138 132.104 66.5197 132.104 65.3104C132.104 64.1011 131.835 62.907 131.316 61.8148C130.823 60.8462 130.067 60.0361 129.135 59.4778C128.202 58.9195 127.131 58.6355 126.045 58.6586C125.222 58.6202 124.401 58.7612 123.638 59.0718C122.875 59.3825 122.188 59.8553 121.626 60.4577H121.658Z" fill="#001D3F"/>
<path d="M156.66 57.2225C158.154 59.0287 158.9 61.3383 158.743 63.677V75.3867H154.656V64.1031C154.741 62.5977 154.244 61.1172 153.267 59.9684C152.793 59.4484 152.212 59.0379 151.563 58.7654C150.915 58.4929 150.214 58.3649 149.511 58.3903C148.779 58.3541 148.047 58.4763 147.366 58.7487C146.686 59.021 146.071 59.4371 145.566 59.9684C144.48 61.2958 143.954 62.9939 144.098 64.7028V75.3867H139.979V55.2341H144.098V59.6528C144.574 58.2379 145.514 57.0254 146.765 56.2125C148.046 55.3666 149.555 54.9317 151.089 54.9658C152.126 54.9192 153.16 55.0967 154.121 55.4861C155.083 55.8756 155.949 56.4678 156.66 57.2225Z" fill="#001D3F"/>
<path d="M174.998 56.3705C176.257 57.2524 177.203 58.5128 177.697 59.9687V55.2343H181.816V75.3869H177.697V70.6526C177.196 72.0963 176.251 73.3447 174.998 74.2191C173.636 75.1426 172.019 75.6172 170.374 75.5763C168.743 75.5939 167.138 75.1626 165.735 74.3296C164.36 73.4703 163.264 72.2316 162.578 70.763C161.799 69.0259 161.396 67.1435 161.396 65.2396C161.396 63.3357 161.799 61.4533 162.578 59.7162C163.259 58.2445 164.357 57.0046 165.735 56.1496C167.135 55.3097 168.742 54.8779 170.374 54.9029C172.031 54.8944 173.649 55.4079 174.998 56.3705V56.3705ZM167.281 60.4579C166.149 61.8146 165.584 63.5556 165.703 65.3185C165.586 67.086 166.151 68.831 167.281 70.1949C167.846 70.7833 168.529 71.245 169.285 71.5497C170.041 71.8544 170.854 71.9951 171.668 71.9624C172.776 71.9857 173.869 71.7016 174.825 71.1418C175.743 70.5871 176.491 69.7898 176.987 68.8377C177.506 67.7455 177.775 66.5514 177.775 65.3422C177.775 64.1329 177.506 62.9388 176.987 61.8466C176.493 60.8853 175.745 60.0775 174.825 59.511C173.869 58.9512 172.776 58.6671 171.668 58.6904C170.853 58.6536 170.04 58.7924 169.283 59.0973C168.526 59.4023 167.843 59.8663 167.281 60.4579V60.4579Z" fill="#001D3F"/>
<path d="M198.213 56.3704C199.468 57.2569 200.412 58.5157 200.911 59.9685V55.2341H205.015V75.5919C205.052 77.3224 204.662 79.0354 203.878 80.5788C203.134 82.0011 202.001 83.183 200.612 83.9876C199.068 84.8406 197.324 85.2655 195.562 85.2185C193.143 85.3357 190.756 84.6291 188.791 83.2143C187.096 81.8641 185.97 79.9266 185.635 77.7855H189.722C190.02 78.9165 190.707 79.9059 191.664 80.5788C192.762 81.2841 194.052 81.6314 195.356 81.573C196.101 81.5944 196.843 81.4657 197.537 81.1945C198.231 80.9234 198.863 80.5154 199.396 79.9949C199.951 79.4011 200.377 78.6996 200.649 77.934C200.92 77.1683 201.031 76.355 200.975 75.5446V70.7313C200.474 72.175 199.529 73.4234 198.276 74.2979C196.914 75.2214 195.297 75.6959 193.652 75.655C192.02 75.6726 190.415 75.2413 189.012 74.4083C187.638 73.5491 186.542 72.3104 185.856 70.8418C185.029 69.1252 184.613 67.2395 184.641 65.3341C184.594 63.4423 184.994 61.5661 185.809 59.858C186.49 58.3864 187.587 57.1465 188.965 56.2915C190.365 55.4516 191.972 55.0197 193.605 55.0447C195.241 54.9979 196.851 55.4612 198.213 56.3704V56.3704ZM190.464 60.4577C189.332 61.8144 188.767 63.5554 188.886 65.3183C188.763 67.0866 189.328 68.834 190.464 70.1947C191.027 70.7847 191.71 71.2476 192.467 71.5524C193.223 71.8572 194.036 71.9969 194.851 71.9622C195.959 71.9855 197.052 71.7015 198.008 71.1416C198.926 70.5869 199.674 69.7897 200.17 68.8375C200.689 67.7454 200.958 66.5513 200.958 65.342C200.958 64.1327 200.689 62.9386 200.17 61.8465C199.676 60.8851 198.928 60.0773 198.008 59.5108C197.052 58.951 195.959 58.6669 194.851 58.6902C194.036 58.6524 193.222 58.7907 192.465 59.0957C191.708 59.4007 191.026 59.8652 190.464 60.4577Z" fill="#001D3F"/>
<path d="M227.155 66.1546H211.848C211.811 66.9951 211.943 67.8342 212.236 68.6229C212.529 69.4115 212.976 70.1337 213.552 70.747C214.068 71.2599 214.681 71.6639 215.356 71.935C216.032 72.2061 216.754 72.3388 217.481 72.3251C218.728 72.3617 219.953 71.9905 220.969 71.2678C221.431 70.9375 221.824 70.5195 222.124 70.0375C222.425 69.5555 222.628 69.019 222.721 68.4587H227.124C226.879 69.8343 226.3 71.1289 225.439 72.2294C224.578 73.3298 223.461 74.2025 222.184 74.7712C220.763 75.3991 219.224 75.7165 217.671 75.7023C215.887 75.7363 214.125 75.3067 212.558 74.4556C211.078 73.6304 209.871 72.3908 209.086 70.889C208.201 69.1909 207.761 67.2958 207.808 65.3814C207.754 63.4763 208.195 61.5898 209.086 59.9053C209.875 58.4067 211.081 57.1682 212.558 56.3387C214.139 55.5247 215.892 55.1001 217.671 55.1001C219.45 55.1001 221.202 55.5247 222.784 56.3387C224.196 57.1115 225.357 58.2725 226.13 59.6843C227.172 61.6985 227.532 63.997 227.155 66.2335V66.1546ZM222.421 60.9626C221.965 60.1088 221.253 59.419 220.385 58.99C219.522 58.5624 218.57 58.3461 217.608 58.3587C216.116 58.3151 214.664 58.8461 213.552 59.8421C212.98 60.4255 212.53 61.1163 212.226 61.8747C211.923 62.6332 211.773 63.4441 211.784 64.2609H223.084C223.195 63.1304 222.998 61.9909 222.516 60.9626H222.421Z" fill="#001D3F"/>
<path d="M237.129 56.1177C238.433 55.3327 239.932 54.9332 241.453 54.9657V59.4949H240.222C238.666 59.4178 237.131 59.8867 235.883 60.8205C235.303 61.3832 234.859 62.071 234.585 62.8314C234.312 63.5917 234.216 64.4045 234.304 65.2077V75.3866H230.186V55.234H234.304V59.1793C234.941 57.9143 235.92 56.8535 237.129 56.1177V56.1177Z" fill="#001D3F"/>
</g>
<defs>
<linearGradient id="paint0_linear" x1="19.8366" y1="45.9235" x2="72.5618" y2="45.9235" gradientUnits="userSpaceOnUse">
<stop stop-color="#B37CFF" stop-opacity="0.6"/>
<stop offset="1" stop-color="#B37CFF"/>
</linearGradient>
<clipPath id="clip0">
<rect width="241.453" height="75.75" fill="white" transform="translate(0 9.46875)"/>
</clipPath>
</defs>
</svg>
